# xmcd
#
# Track frame offsets:
#	150
#	19135
#	37080
#	62605
#	84840
#	103932
#	123740
#	148222
#	166475
#	187357
#	204037
#
# Disc length: 2996 seconds
#
# Revision: 1
# Processed by: cddbd v1.5PL3 Copyright (c) Steve Scherf et al.
# Submitted via: CDex 1.50Beta5
#
DISCID=a00bb20b
DTITLE=近藤名奈 - NaNa
DYEAR=1995
DGENRE=Pop
TTITLE0=Tokyo
TTITLE1=Sunday
TTITLE2=恋をしましょう
TTITLE3=Solitude
TTITLE4=花びらが散る前に
TTITLE5=Still
TTITLE6=灯りをつけるよ
TTITLE7=Kissだけじゃうまくいかない
TTITLE8=天使たちの街へ
TTITLE9=想い焦がれて
TTITLE10=純情な恋でも…
EXTD=
EXTT0=
EXTT1=
EXTT2=
EXTT3=
EXTT4=
EXTT5=
EXTT6=
EXTT7=
EXTT8=
EXTT9=
EXTT10=
PLAYORDER=
